<svg width="306" height="55" viewBox="0 0 306 55" fill="none" xmlns="http://www.w3.org/2000/svg">
<path d="M7.02841 6.27273L9.29972 13.142H9.3892L11.6562 6.27273H13.3949L10.3182 15H8.36648L5.29403 6.27273H7.02841ZM15.68 15.1321C15.2653 15.1321 14.8917 15.0582 14.5593 14.9105C14.2298 14.7599 13.9684 14.5384 13.7752 14.2457C13.5849 13.9531 13.4897 13.5923 13.4897 13.1634C13.4897 12.794 13.5579 12.4886 13.6942 12.2472C13.8306 12.0057 14.0167 11.8125 14.2525 11.6676C14.4883 11.5227 14.7539 11.4134 15.0494 11.3395C15.3477 11.2628 15.6559 11.2074 15.9741 11.1733C16.3576 11.1335 16.6687 11.098 16.9073 11.0668C17.146 11.0327 17.3192 10.9815 17.4272 10.9134C17.538 10.8423 17.5934 10.733 17.5934 10.5852V10.5597C17.5934 10.2386 17.4982 9.99006 17.3079 9.81392C17.1175 9.63778 16.8434 9.54972 16.4854 9.54972C16.1076 9.54972 15.8079 9.6321 15.5863 9.79688C15.3675 9.96165 15.2198 10.1562 15.1431 10.3807L13.7028 10.1761C13.8164 9.77841 14.0039 9.44602 14.2653 9.17898C14.5266 8.90909 14.8462 8.70739 15.2241 8.57386C15.6019 8.4375 16.0195 8.36932 16.4769 8.36932C16.7923 8.36932 17.1062 8.40625 17.4187 8.48011C17.7312 8.55398 18.0167 8.67614 18.2752 8.84659C18.5337 9.0142 18.7411 9.2429 18.8974 9.53267C19.0565 9.82244 19.136 10.1847 19.136 10.6193V15H17.6531V14.1009H17.6019C17.5082 14.2827 17.3761 14.4531 17.2056 14.6122C17.038 14.7685 16.8263 14.8949 16.5707 14.9915C16.3178 15.0852 16.021 15.1321 15.68 15.1321ZM16.0806 13.9986C16.3903 13.9986 16.6587 13.9375 16.886 13.8153C17.1133 13.6903 17.288 13.5256 17.4102 13.321C17.5352 13.1165 17.5977 12.8935 17.5977 12.652V11.8807C17.5494 11.9205 17.467 11.9574 17.3505 11.9915C17.2369 12.0256 17.109 12.0554 16.967 12.081C16.8249 12.1065 16.6843 12.1293 16.5451 12.1491C16.4059 12.169 16.2852 12.1861 16.1829 12.2003C15.9528 12.2315 15.7468 12.2827 15.565 12.3537C15.3832 12.4247 15.2397 12.5241 15.1346 12.652C15.0295 12.777 14.9769 12.9389 14.9769 13.1378C14.9769 13.4219 15.0806 13.6364 15.288 13.7812C15.4954 13.9261 15.7596 13.9986 16.0806 13.9986ZM22.2298 6.27273V15H20.6871V6.27273H22.2298ZM23.8161 15V8.45455H25.3587V15H23.8161ZM24.5916 7.52557C24.3473 7.52557 24.1371 7.4446 23.9609 7.28267C23.7848 7.1179 23.6967 6.92045 23.6967 6.69034C23.6967 6.45739 23.7848 6.25994 23.9609 6.09801C24.1371 5.93324 24.3473 5.85085 24.5916 5.85085C24.8388 5.85085 25.049 5.93324 25.2223 6.09801C25.3984 6.25994 25.4865 6.45739 25.4865 6.69034C25.4865 6.92045 25.3984 7.1179 25.2223 7.28267C25.049 7.4446 24.8388 7.52557 24.5916 7.52557ZM29.3739 15.1151C28.8597 15.1151 28.3995 14.983 27.9933 14.7188C27.587 14.4545 27.266 14.071 27.0302 13.5682C26.7944 13.0653 26.6765 12.4545 26.6765 11.7358C26.6765 11.0085 26.7958 10.3949 27.0344 9.89489C27.2759 9.39205 27.6012 9.01278 28.0103 8.7571C28.4194 8.49858 28.8754 8.36932 29.3782 8.36932C29.7617 8.36932 30.0771 8.43466 30.3242 8.56534C30.5714 8.69318 30.7674 8.84801 30.9123 9.02983C31.0572 9.20881 31.1694 9.37784 31.2489 9.53693H31.3129V6.27273H32.8597V15H31.3427V13.9688H31.2489C31.1694 14.1278 31.0543 14.2969 30.9038 14.4759C30.7532 14.652 30.5543 14.8026 30.3072 14.9276C30.06 15.0526 29.7489 15.1151 29.3739 15.1151ZM29.8043 13.8494C30.131 13.8494 30.4094 13.7614 30.6396 13.5852C30.8697 13.4062 31.0444 13.1577 31.1637 12.8395C31.283 12.5213 31.3427 12.1506 31.3427 11.7273C31.3427 11.304 31.283 10.9361 31.1637 10.6236C31.0472 10.3111 30.8739 10.0682 30.6438 9.89489C30.4165 9.72159 30.1367 9.63494 29.8043 9.63494C29.4606 9.63494 29.1737 9.72443 28.9435 9.90341C28.7134 10.0824 28.5401 10.3295 28.4237 10.6449C28.3072 10.9602 28.2489 11.321 28.2489 11.7273C28.2489 12.1364 28.3072 12.5014 28.4237 12.8224C28.543 13.1406 28.7177 13.392 28.9478 13.5767C29.1808 13.7585 29.4663 13.8494 29.8043 13.8494ZM34.5036 15V8.45455H36.0462V15H34.5036ZM35.2791 7.52557C35.0348 7.52557 34.8246 7.4446 34.6484 7.28267C34.4723 7.1179 34.3842 6.92045 34.3842 6.69034C34.3842 6.45739 34.4723 6.25994 34.6484 6.09801C34.8246 5.93324 35.0348 5.85085 35.2791 5.85085C35.5263 5.85085 35.7365 5.93324 35.9098 6.09801C36.0859 6.25994 36.174 6.45739 36.174 6.69034C36.174 6.92045 36.0859 7.1179 35.9098 7.28267C35.7365 7.4446 35.5263 7.52557 35.2791 7.52557ZM40.9009 8.45455V9.64773H37.1381V8.45455H40.9009ZM38.0671 6.88636H39.6097V13.0312C39.6097 13.2386 39.641 13.3977 39.7035 13.5085C39.7688 13.6165 39.854 13.6903 39.9592 13.7301C40.0643 13.7699 40.1808 13.7898 40.3086 13.7898C40.4052 13.7898 40.4933 13.7827 40.5728 13.7685C40.6552 13.7543 40.7177 13.7415 40.7603 13.7301L41.0202 14.9361C40.9379 14.9645 40.82 14.9957 40.6665 15.0298C40.516 15.0639 40.3313 15.0838 40.1126 15.0895C39.7262 15.1009 39.3782 15.0426 39.0685 14.9148C38.7589 14.7841 38.5131 14.5824 38.3313 14.3097C38.1523 14.0369 38.0643 13.696 38.0671 13.2869V6.88636ZM43.1499 17.4545C42.9396 17.4545 42.745 17.4375 42.5661 17.4034C42.3899 17.3722 42.2493 17.3352 42.1442 17.2926L42.5021 16.0909C42.7266 16.1563 42.9268 16.1875 43.103 16.1847C43.2791 16.1818 43.4339 16.1264 43.5675 16.0185C43.7038 15.9134 43.8189 15.7372 43.9126 15.4901L44.0447 15.1364L41.6712 8.45455H43.3075L44.8161 13.3977H44.8842L46.397 8.45455H48.0376L45.4169 15.7926C45.2947 16.1392 45.1328 16.4361 44.9311 16.6832C44.7294 16.9332 44.4822 17.1236 44.1896 17.2543C43.8999 17.3878 43.5533 17.4545 43.1499 17.4545Z" fill="#323C4D"/>
<path d="M299.824 14.1193C299.407 14.1165 298.999 14.044 298.601 13.902C298.203 13.7571 297.845 13.5227 297.527 13.1989C297.209 12.8722 296.956 12.4389 296.769 11.8991C296.581 11.3565 296.489 10.6847 296.492 9.88352C296.492 9.13636 296.571 8.47017 296.73 7.88494C296.889 7.29972 297.118 6.8054 297.416 6.40199C297.715 5.99574 298.074 5.68608 298.495 5.47301C298.918 5.25994 299.391 5.15341 299.914 5.15341C300.462 5.15341 300.948 5.26136 301.371 5.47727C301.797 5.69318 302.141 5.98864 302.402 6.36364C302.664 6.7358 302.826 7.15625 302.888 7.625H301.333C301.253 7.28977 301.09 7.02273 300.843 6.82386C300.598 6.62216 300.289 6.52131 299.914 6.52131C299.309 6.52131 298.843 6.78409 298.516 7.30966C298.192 7.83523 298.029 8.55682 298.026 9.47443H298.085C298.225 9.22443 298.405 9.00994 298.627 8.83097C298.848 8.65199 299.098 8.5142 299.377 8.41761C299.658 8.31818 299.955 8.26847 300.267 8.26847C300.779 8.26847 301.237 8.39062 301.644 8.63494C302.053 8.87926 302.377 9.21591 302.615 9.64489C302.854 10.071 302.972 10.5597 302.969 11.1108C302.972 11.6847 302.841 12.2003 302.577 12.6577C302.313 13.1122 301.945 13.4702 301.473 13.7315C301.002 13.9929 300.452 14.1222 299.824 14.1193ZM299.816 12.8409C300.125 12.8409 300.402 12.7656 300.647 12.6151C300.891 12.4645 301.084 12.2614 301.226 12.0057C301.368 11.75 301.438 11.4631 301.435 11.1449C301.438 10.8324 301.37 10.5497 301.23 10.2969C301.094 10.044 300.905 9.84375 300.664 9.69602C300.422 9.5483 300.147 9.47443 299.837 9.47443C299.607 9.47443 299.392 9.51847 299.193 9.60653C298.995 9.6946 298.821 9.81676 298.674 9.97301C298.526 10.1264 298.409 10.3054 298.324 10.5099C298.242 10.7116 298.199 10.9276 298.196 11.1577C298.199 11.4616 298.27 11.7415 298.409 11.9972C298.549 12.2528 298.74 12.4574 298.985 12.6108C299.229 12.7642 299.506 12.8409 299.816 12.8409Z" fill="#323C4D"/>
<g filter="url(#filter0_d_0_2865)">
<rect x="6" y="41" width="298" height="10" rx="5" fill="white"/>
</g>
<g filter="url(#filter1_d_0_2865)">
<rect x="6" y="41" width="223.5" height="10" rx="5" fill="#6EC171"/>
</g>
<defs>
<filter id="filter0_d_0_2865" x="0" y="37" width="306" height="18" filterUnits="userSpaceOnUse" color-interpolation-filters="sRGB">
<feFlood flood-opacity="0" result="BackgroundImageFix"/>
<feColorMatrix in="SourceAlpha" type="matrix" values="0 0 0 0 0 0 0 0 0 0 0 0 0 0 0 0 0 0 127 0" result="hardAlpha"/>
<feOffset dx="-2"/>
<feGaussianBlur stdDeviation="2"/>
<feComposite in2="hardAlpha" operator="out"/>
<feColorMatrix type="matrix" values="0 0 0 0 1 0 0 0 0 1 0 0 0 0 1 0 0 0 0.13 0"/>
<feBlend mode="normal" in2="BackgroundImageFix" result="effect1_dropShadow_0_2865"/>
<feBlend mode="normal" in="SourceGraphic" in2="effect1_dropShadow_0_2865" result="shape"/>
</filter>
<filter id="filter1_d_0_2865" x="0" y="37" width="231.5" height="18" filterUnits="userSpaceOnUse" color-interpolation-filters="sRGB">
<feFlood flood-opacity="0" result="BackgroundImageFix"/>
<feColorMatrix in="SourceAlpha" type="matrix" values="0 0 0 0 0 0 0 0 0 0 0 0 0 0 0 0 0 0 127 0" result="hardAlpha"/>
<feOffset dx="-2"/>
<feGaussianBlur stdDeviation="2"/>
<feComposite in2="hardAlpha" operator="out"/>
<feColorMatrix type="matrix" values="0 0 0 0 1 0 0 0 0 1 0 0 0 0 1 0 0 0 0.13 0"/>
<feBlend mode="normal" in2="BackgroundImageFix" result="effect1_dropShadow_0_2865"/>
<feBlend mode="normal" in="SourceGraphic" in2="effect1_dropShadow_0_2865" result="shape"/>
</filter>
</defs>
</svg>
